<svg xmlns="http://www.w3.org/2000/svg" width="1080" height="1080"><path d="M185,1291L76,1309L438,1291Z" fill="#6882a3" stroke="#6882a3" stroke-width="1.51"/><path d="M-109,-239L136,-204L526,-241Z" fill="#dfdfee" stroke="#dfdfee" stroke-width="1.51"/><path d="M-109,-239L526,-241L812,-256Z" fill="#c8d5e8" stroke="#c8d5e8" stroke-width="1.51"/><path d="M76,1309L-235,1313L976,1340Z" fill="#627e9e" stroke="#627e9e" stroke-width="1.51"/><path d="M438,1291L76,1309L976,1340Z" fill="#47749a" stroke="#47749a" stroke-width="1.51"/><path d="M678,1262L438,1291L976,1340Z" fill="#296b95" stroke="#296b95" stroke-width="1.51"/><path d="M-109,-239L812,-256L1138,-263Z" fill="#b3c9e2" stroke="#b3c9e2" stroke-width="1.51"/><path d="M812,-256L989,-236L1138,-263Z" fill="#98aed2" stroke="#98aed2" stroke-width="1.51"/><path d="M1270,738L1238,889L1298,946Z" fill="#136393" stroke="#136393" stroke-width="1.51"/><path d="M1180,341L1112,530L1311,556Z" fill="#4f7faa" stroke="#4f7faa" stroke-width="1.51"/><path d="M1147,648L1270,738L1311,556Z" fill="#33739e" stroke="#33739e" stroke-width="1.51"/><path d="M1270,738L1298,946L1311,556Z" fill="#1e6994" stroke="#1e6994" stroke-width="1.51"/><path d="M1180,341L1311,556L1314,358Z" fill="#537ca2" stroke="#537ca2" stroke-width="1.51"/><path d="M1289,206L1180,341L1314,358Z" fill="#6282a6" stroke="#6282a6" stroke-width="1.51"/><path d="M1298,946L1175,1013L1324,1091Z" fill="#04588b" stroke="#04588b" stroke-width="1.51"/><path d="M1311,556L1298,946L1324,1091Z" fill="#115e8d" stroke="#115e8d" stroke-width="1.51"/><path d="M1268,113L1289,206L1334,-170Z" fill="#788aa8" stroke="#788aa8" stroke-width="1.51"/><path d="M1281,-75L1268,113L1334,-170Z" fill="#7e8fab" stroke="#7e8fab" stroke-width="1.51"/><path d="M1289,206L1314,358L1334,-170Z" fill="#7185a3" stroke="#7185a3" stroke-width="1.51"/><path d="M1145,1306L976,1340L1345,1307Z" fill="#034d79" stroke="#034d79" stroke-width="1.51"/><path d="M1324,1091L1127,1137L1345,1307Z" fill="#034f7c" stroke="#034f7c" stroke-width="1.51"/><path d="M1127,1137L1145,1306L1345,1307Z" fill="#034e7b" stroke="#034e7b" stroke-width="1.51"/><path d="M1311,556L1324,1091L1345,1307Z" fill="#035585" stroke="#035585" stroke-width="1.51"/><path d="M1314,358L1311,556L1345,1307Z" fill="#1e6790" stroke="#1e6790" stroke-width="1.51"/><path d="M1334,-170L1314,358L1345,1307Z" fill="#467297" stroke="#467297" stroke-width="1.51"/><path d="M1138,-263L1281,-75L1334,-170Z" fill="#8798b4" stroke="#8798b4" stroke-width="1.51"/><path d="M1144,101L1268,113L1281,-75Z" fill="#7c91b1" stroke="#7c91b1" stroke-width="1.51"/><path d="M1175,1013L1127,1137L1324,1091Z" fill="#035a8d" stroke="#035a8d" stroke-width="1.51"/><path d="M1138,-263L1096,-96L1281,-75Z" fill="#8b9fbf" stroke="#8b9fbf" stroke-width="1.51"/><path d="M1112,530L1147,648L1311,556Z" fill="#407ba8" stroke="#407ba8" stroke-width="1.51"/><path d="M1096,-96L1144,101L1281,-75Z" fill="#8499bb" stroke="#8499bb" stroke-width="1.51"/><path d="M1238,889L1175,1013L1298,946Z" fill="#055e94" stroke="#055e94" stroke-width="1.51"/><path d="M1109,851L1238,889L1270,738Z" fill="#186a9d" stroke="#186a9d" stroke-width="1.51"/><path d="M1093,212L1180,341L1289,206Z" fill="#6c8bb1" stroke="#6c8bb1" stroke-width="1.51"/><path d="M1268,113L1144,101L1289,206Z" fill="#758cae" stroke="#758cae" stroke-width="1.51"/><path d="M1144,101L1093,212L1289,206Z" fill="#7590b6" stroke="#7590b6" stroke-width="1.51"/><path d="M1147,648L1109,851L1270,738Z" fill="#2173a4" stroke="#2173a4" stroke-width="1.51"/><path d="M1109,851L1175,1013L1238,889Z" fill="#0c669e" stroke="#0c669e" stroke-width="1.51"/><path d="M1096,-96L1015,-16L1144,101Z" fill="#869ec3" stroke="#869ec3" stroke-width="1.51"/><path d="M1127,1137L1040,1187L1145,1306Z" fill="#03588a" stroke="#03588a" stroke-width="1.51"/><path d="M1043,968L1127,1137L1175,1013Z" fill="#04639a" stroke="#04639a" stroke-width="1.51"/><path d="M1109,851L1043,968L1175,1013Z" fill="#0668a3" stroke="#0668a3" stroke-width="1.51"/><path d="M935,364L1112,530L1180,341Z" fill="#5c8bb8" stroke="#5c8bb8" stroke-width="1.51"/><path d="M1023,241L935,364L1180,341Z" fill="#6a91be" stroke="#6a91be" stroke-width="1.51"/><path d="M1093,212L1023,241L1180,341Z" fill="#6d90bb" stroke="#6d90bb" stroke-width="1.51"/><path d="M964,634L1109,851L1147,648Z" fill="#2b7baf" stroke="#2b7baf" stroke-width="1.51"/><path d="M964,634L999,864L1109,851Z" fill="#2079b0" stroke="#2079b0" stroke-width="1.51"/><path d="M989,-236L1096,-96L1138,-263Z" fill="#92a6c9" stroke="#92a6c9" stroke-width="1.51"/><path d="M1015,-16L983,46L1144,101Z" fill="#849ec5" stroke="#849ec5" stroke-width="1.51"/><path d="M1040,1187L976,1340L1145,1306Z" fill="#045586" stroke="#045586" stroke-width="1.51"/><path d="M1039,577L964,634L1147,648Z" fill="#3d81b4" stroke="#3d81b4" stroke-width="1.51"/><path d="M1112,530L1039,577L1147,648Z" fill="#4281b1" stroke="#4281b1" stroke-width="1.51"/><path d="M983,46L1093,212L1144,101Z" fill="#7e98c0" stroke="#7e98c0" stroke-width="1.51"/><path d="M1043,968L1040,1187L1127,1137Z" fill="#046199" stroke="#046199" stroke-width="1.51"/><path d="M999,864L1043,968L1109,851Z" fill="#116faa" stroke="#116faa" stroke-width="1.51"/><path d="M935,364L1039,577L1112,530Z" fill="#528aba" stroke="#528aba" stroke-width="1.51"/><path d="M983,46L1023,241L1093,212Z" fill="#7b98c3" stroke="#7b98c3" stroke-width="1.51"/><path d="M867,1089L1040,1187L1043,968Z" fill="#0467a2" stroke="#0467a2" stroke-width="1.51"/><path d="M989,-236L1015,-16L1096,-96Z" fill="#8fa6cb" stroke="#8fa6cb" stroke-width="1.51"/><path d="M964,634L872,690L999,864Z" fill="#2a81b9" stroke="#2a81b9" stroke-width="1.51"/><path d="M989,-236L827,-79L1015,-16Z" fill="#93abd2" stroke="#93abd2" stroke-width="1.51"/><path d="M983,46L882,68L1023,241Z" fill="#829fcb" stroke="#829fcb" stroke-width="1.51"/><path d="M838,485L964,634L1039,577Z" fill="#498bbf" stroke="#498bbf" stroke-width="1.51"/><path d="M935,364L838,485L1039,577Z" fill="#5790c2" stroke="#5790c2" stroke-width="1.51"/><path d="M888,1261L976,1340L1040,1187Z" fill="#045b8f" stroke="#045b8f" stroke-width="1.51"/><path d="M999,864L885,935L1043,968Z" fill="#0c71af" stroke="#0c71af" stroke-width="1.51"/><path d="M885,935L867,1089L1043,968Z" fill="#0a6fad" stroke="#0a6fad" stroke-width="1.51"/><path d="M867,1089L888,1261L1040,1187Z" fill="#09659d" stroke="#09659d" stroke-width="1.51"/><path d="M817,288L935,364L1023,241Z" fill="#7099c8" stroke="#7099c8" stroke-width="1.51"/><path d="M882,68L817,288L1023,241Z" fill="#7d9fcb" stroke="#7d9fcb" stroke-width="1.51"/><path d="M827,-79L882,68L983,46Z" fill="#8da9d1" stroke="#8da9d1" stroke-width="1.51"/><path d="M872,690L845,893L999,864Z" fill="#227eb8" stroke="#227eb8" stroke-width="1.51"/><path d="M827,-79L983,46L1015,-16Z" fill="#8da7d0" stroke="#8da7d0" stroke-width="1.51"/><path d="M888,1261L678,1262L976,1340Z" fill="#146191" stroke="#146191" stroke-width="1.51"/><path d="M812,-256L827,-79L989,-236Z" fill="#9ab4d7" stroke="#9ab4d7" stroke-width="1.51"/><path d="M845,893L885,935L999,864Z" fill="#1877b3" stroke="#1877b3" stroke-width="1.51"/><path d="M136,-204L286,-193L526,-241Z" fill="#d1d8ea" stroke="#d1d8ea" stroke-width="1.51"/><path d="M838,485L872,690L964,634Z" fill="#468dc0" stroke="#468dc0" stroke-width="1.51"/><path d="M585,1253L438,1291L678,1262Z" fill="#3f759d" stroke="#3f759d" stroke-width="1.51"/><path d="M733,806L845,893L872,690Z" fill="#2d86bc" stroke="#2d86bc" stroke-width="1.51"/><path d="M798,381L838,485L935,364Z" fill="#659ac7" stroke="#659ac7" stroke-width="1.51"/><path d="M817,288L798,381L935,364Z" fill="#6f9dc9" stroke="#6f9dc9" stroke-width="1.51"/><path d="M716,95L741,266L817,288Z" fill="#82abd0" stroke="#82abd0" stroke-width="1.51"/><path d="M812,-256L723,-184L827,-79Z" fill="#9ebbda" stroke="#9ebbda" stroke-width="1.51"/><path d="M674,485L677,703L838,485Z" fill="#599cc7" stroke="#599cc7" stroke-width="1.51"/><path d="M644,1106L678,1262L867,1089Z" fill="#2676a7" stroke="#2676a7" stroke-width="1.51"/><path d="M838,485L677,703L872,690Z" fill="#4893c2" stroke="#4893c2" stroke-width="1.51"/><path d="M827,-79L708,-17L882,68Z" fill="#94b2d5" stroke="#94b2d5" stroke-width="1.51"/><path d="M708,-17L716,95L882,68Z" fill="#92b2d5" stroke="#92b2d5" stroke-width="1.51"/><path d="M716,95L817,288L882,68Z" fill="#87aad0" stroke="#87aad0" stroke-width="1.51"/><path d="M743,1021L867,1089L885,935Z" fill="#1a76af" stroke="#1a76af" stroke-width="1.51"/><path d="M845,893L743,1021L885,935Z" fill="#1c7ab5" stroke="#1c7ab5" stroke-width="1.51"/><path d="M867,1089L678,1262L888,1261Z" fill="#1a6b9e" stroke="#1a6b9e" stroke-width="1.51"/><path d="M743,1021L644,1106L867,1089Z" fill="#2279ae" stroke="#2279ae" stroke-width="1.51"/><path d="M677,703L733,806L872,690Z" fill="#3890c0" stroke="#3890c0" stroke-width="1.51"/><path d="M733,806L743,1021L845,893Z" fill="#2681b9" stroke="#2681b9" stroke-width="1.51"/><path d="M526,-241L723,-184L812,-256Z" fill="#a9c4de" stroke="#a9c4de" stroke-width="1.51"/><path d="M798,381L674,485L838,485Z" fill="#659fc9" stroke="#659fc9" stroke-width="1.51"/><path d="M741,266L798,381L817,288Z" fill="#76a4cd" stroke="#76a4cd" stroke-width="1.51"/><path d="M723,-184L708,-17L827,-79Z" fill="#9cbbda" stroke="#9cbbda" stroke-width="1.51"/><path d="M733,806L579,993L743,1021Z" fill="#3484bb" stroke="#3484bb" stroke-width="1.51"/><path d="M741,266L638,396L798,381Z" fill="#76a7ce" stroke="#76a7ce" stroke-width="1.51"/><path d="M638,396L674,485L798,381Z" fill="#70a5cd" stroke="#70a5cd" stroke-width="1.51"/><path d="M674,485L582,658L677,703Z" fill="#5c9ec8" stroke="#5c9ec8" stroke-width="1.51"/><path d="M596,-99L708,-17L723,-184Z" fill="#a5c0dc" stroke="#a5c0dc" stroke-width="1.51"/><path d="M493,893L579,993L733,806Z" fill="#468cc0" stroke="#468cc0" stroke-width="1.51"/><path d="M716,95L576,87L741,266Z" fill="#93b3d5" stroke="#93b3d5" stroke-width="1.51"/><path d="M576,87L509,273L741,266Z" fill="#94b5d6" stroke="#94b5d6" stroke-width="1.51"/><path d="M579,993L644,1106L743,1021Z" fill="#3780b4" stroke="#3780b4" stroke-width="1.51"/><path d="M509,273L638,396L741,266Z" fill="#86aed3" stroke="#86aed3" stroke-width="1.51"/><path d="M286,-193L389,-195L526,-241Z" fill="#c8d4e7" stroke="#c8d4e7" stroke-width="1.51"/><path d="M708,-17L576,87L716,95Z" fill="#9bb9d8" stroke="#9bb9d8" stroke-width="1.51"/><path d="M677,703L493,893L733,806Z" fill="#4792c2" stroke="#4792c2" stroke-width="1.51"/><path d="M526,-241L596,-99L723,-184Z" fill="#afc6e0" stroke="#afc6e0" stroke-width="1.51"/><path d="M644,1106L585,1253L678,1262Z" fill="#3776a3" stroke="#3776a3" stroke-width="1.51"/><path d="M582,658L493,893L677,703Z" fill="#5299c6" stroke="#5299c6" stroke-width="1.51"/><path d="M596,-99L576,87L708,-17Z" fill="#a4bfdc" stroke="#a4bfdc" stroke-width="1.51"/><path d="M489,510L582,658L674,485Z" fill="#6da6cd" stroke="#6da6cd" stroke-width="1.51"/><path d="M532,432L489,510L674,485Z" fill="#79aad0" stroke="#79aad0" stroke-width="1.51"/><path d="M638,396L532,432L674,485Z" fill="#79a9d0" stroke="#79a9d0" stroke-width="1.51"/><path d="M509,273L532,432L638,396Z" fill="#87b0d4" stroke="#87b0d4" stroke-width="1.51"/><path d="M514,1087L585,1253L644,1106Z" fill="#427ead" stroke="#427ead" stroke-width="1.51"/><path d="M579,993L514,1087L644,1106Z" fill="#4383b4" stroke="#4383b4" stroke-width="1.51"/><path d="M364,-71L406,131L576,87Z" fill="#b4c5df" stroke="#b4c5df" stroke-width="1.51"/><path d="M406,131L509,273L576,87Z" fill="#a5bddb" stroke="#a5bddb" stroke-width="1.51"/><path d="M409,673L493,893L582,658Z" fill="#609fc9" stroke="#609fc9" stroke-width="1.51"/><path d="M514,1087L438,1291L585,1253Z" fill="#497da7" stroke="#497da7" stroke-width="1.51"/><path d="M526,-241L389,-195L596,-99Z" fill="#bbcee4" stroke="#bbcee4" stroke-width="1.51"/><path d="M389,-195L364,-71L596,-99Z" fill="#bfcee4" stroke="#bfcee4" stroke-width="1.51"/><path d="M364,-71L576,87L596,-99Z" fill="#b2c7e0" stroke="#b2c7e0" stroke-width="1.51"/><path d="M409,673L355,795L493,893Z" fill="#689fca" stroke="#689fca" stroke-width="1.51"/><path d="M489,510L409,673L582,658Z" fill="#71a7ce" stroke="#71a7ce" stroke-width="1.51"/><path d="M398,952L514,1087L579,993Z" fill="#518bbc" stroke="#518bbc" stroke-width="1.51"/><path d="M493,893L398,952L579,993Z" fill="#558fc2" stroke="#558fc2" stroke-width="1.51"/><path d="M397,252L375,410L509,273Z" fill="#9eb9d9" stroke="#9eb9d9" stroke-width="1.51"/><path d="M406,131L397,252L509,273Z" fill="#a7bddb" stroke="#a7bddb" stroke-width="1.51"/><path d="M351,1099L438,1291L514,1087Z" fill="#5785b0" stroke="#5785b0" stroke-width="1.51"/><path d="M509,273L375,410L532,432Z" fill="#91b4d6" stroke="#91b4d6" stroke-width="1.51"/><path d="M375,410L489,510L532,432Z" fill="#89b1d4" stroke="#89b1d4" stroke-width="1.51"/><path d="M375,410L393,499L489,510Z" fill="#8cb2d5" stroke="#8cb2d5" stroke-width="1.51"/><path d="M393,499L409,673L489,510Z" fill="#7fadd1" stroke="#7fadd1" stroke-width="1.51"/><path d="M398,952L351,1099L514,1087Z" fill="#5c8cbb" stroke="#5c8cbb" stroke-width="1.51"/><path d="M355,795L398,952L493,893Z" fill="#6397c6" stroke="#6397c6" stroke-width="1.51"/><path d="M364,-71L222,63L406,131Z" fill="#c2cbe3" stroke="#c2cbe3" stroke-width="1.51"/><path d="M351,1099L280,1159L438,1291Z" fill="#6087b0" stroke="#6087b0" stroke-width="1.51"/><path d="M280,1159L185,1291L438,1291Z" fill="#6383a8" stroke="#6383a8" stroke-width="1.51"/><path d="M240,-52L222,63L364,-71Z" fill="#cbd2e6" stroke="#cbd2e6" stroke-width="1.51"/><path d="M286,-193L364,-71L389,-195Z" fill="#cbd4e8" stroke="#cbd4e8" stroke-width="1.51"/><path d="M272,367L375,410L397,252Z" fill="#a4bcda" stroke="#a4bcda" stroke-width="1.51"/><path d="M277,993L351,1099L398,952Z" fill="#6791c0" stroke="#6791c0" stroke-width="1.51"/><path d="M355,795L288,791L398,952Z" fill="#6e9dc9" stroke="#6e9dc9" stroke-width="1.51"/><path d="M288,791L277,993L398,952Z" fill="#6e99c8" stroke="#6e99c8" stroke-width="1.51"/><path d="M194,270L397,252L406,131Z" fill="#b2c2de" stroke="#b2c2de" stroke-width="1.51"/><path d="M222,63L194,270L406,131Z" fill="#bfc8e1" stroke="#bfc8e1" stroke-width="1.51"/><path d="M288,791L355,795L409,673Z" fill="#73a5cc" stroke="#73a5cc" stroke-width="1.51"/><path d="M191,647L288,791L409,673Z" fill="#7fabd0" stroke="#7fabd0" stroke-width="1.51"/><path d="M393,499L259,485L409,673Z" fill="#8ab1d4" stroke="#8ab1d4" stroke-width="1.51"/><path d="M259,485L191,647L409,673Z" fill="#8cb1d5" stroke="#8cb1d5" stroke-width="1.51"/><path d="M375,410L259,485L393,499Z" fill="#96b6d7" stroke="#96b6d7" stroke-width="1.51"/><path d="M194,270L272,367L397,252Z" fill="#afc1dd" stroke="#afc1dd" stroke-width="1.51"/><path d="M286,-193L240,-52L364,-71Z" fill="#ced5e8" stroke="#ced5e8" stroke-width="1.51"/><path d="M272,367L259,485L375,410Z" fill="#a0bad9" stroke="#a0bad9" stroke-width="1.51"/><path d="M144,121L194,270L222,63Z" fill="#c8cde4" stroke="#c8cde4" stroke-width="1.51"/><path d="M277,993L280,1159L351,1099Z" fill="#6a8fbb" stroke="#6a8fbb" stroke-width="1.51"/><path d="M123,509L191,647L259,485Z" fill="#9cb9d9" stroke="#9cb9d9" stroke-width="1.51"/><path d="M277,993L123,969L280,1159Z" fill="#7495c1" stroke="#7495c1" stroke-width="1.51"/><path d="M123,969L77,1163L280,1159Z" fill="#7a95bd" stroke="#7a95bd" stroke-width="1.51"/><path d="M136,-204L240,-52L286,-193Z" fill="#d8daeb" stroke="#d8daeb" stroke-width="1.51"/><path d="M191,647L112,799L288,791Z" fill="#85add1" stroke="#85add1" stroke-width="1.51"/><path d="M123,969L277,993L288,791Z" fill="#799dca" stroke="#799dca" stroke-width="1.51"/><path d="M112,799L123,969L288,791Z" fill="#82a5ce" stroke="#82a5ce" stroke-width="1.51"/><path d="M-240,-90L-167,-169L-109,-239Z" fill="#f5eef6" stroke="#f5eef6" stroke-width="1.51"/><path d="M123,509L259,485L272,367Z" fill="#a5bcdb" stroke="#a5bcdb" stroke-width="1.51"/><path d="M77,1163L185,1291L280,1159Z" fill="#728cb1" stroke="#728cb1" stroke-width="1.51"/><path d="M48,415L123,509L272,367Z" fill="#aec1dd" stroke="#aec1dd" stroke-width="1.51"/><path d="M194,270L48,415L272,367Z" fill="#b5c4df" stroke="#b5c4df" stroke-width="1.51"/><path d="M74,-23L222,63L240,-52Z" fill="#d4d5e8" stroke="#d4d5e8" stroke-width="1.51"/><path d="M136,-204L74,-23L240,-52Z" fill="#dcdbec" stroke="#dcdbec" stroke-width="1.51"/><path d="M-67,1268L-235,1313L76,1309Z" fill="#8190ab" stroke="#8190ab" stroke-width="1.51"/><path d="M144,121L91,238L194,270Z" fill="#c6cce4" stroke="#c6cce4" stroke-width="1.51"/><path d="M74,-23L144,121L222,63Z" fill="#d3d4e8" stroke="#d3d4e8" stroke-width="1.51"/><path d="M77,1163L76,1309L185,1291Z" fill="#768bac" stroke="#768bac" stroke-width="1.51"/><path d="M123,509L45,700L191,647Z" fill="#9cb8d8" stroke="#9cb8d8" stroke-width="1.51"/><path d="M45,700L112,799L191,647Z" fill="#92b3d5" stroke="#92b3d5" stroke-width="1.51"/><path d="M91,238L48,415L194,270Z" fill="#bfc9e2" stroke="#bfc9e2" stroke-width="1.51"/><path d="M-89,553L45,700L123,509Z" fill="#a6bfdc" stroke="#a6bfdc" stroke-width="1.51"/><path d="M-44,1115L77,1163L123,969Z" fill="#839bc2" stroke="#839bc2" stroke-width="1.51"/><path d="M112,799L-65,849L123,969Z" fill="#8ca9d0" stroke="#8ca9d0" stroke-width="1.51"/><path d="M-28,-49L74,-23L136,-204Z" fill="#e3e0ee" stroke="#e3e0ee" stroke-width="1.51"/><path d="M74,-23L-79,133L144,121Z" fill="#d9d8ea" stroke="#d9d8ea" stroke-width="1.51"/><path d="M-17,226L91,238L144,121Z" fill="#cdd0e6" stroke="#cdd0e6" stroke-width="1.51"/><path d="M-79,133L-17,226L144,121Z" fill="#d5d5e8" stroke="#d5d5e8" stroke-width="1.51"/><path d="M-65,849L-76,933L123,969Z" fill="#8da8d1" stroke="#8da8d1" stroke-width="1.51"/><path d="M-109,-239L-28,-49L136,-204Z" fill="#eae6f1" stroke="#eae6f1" stroke-width="1.51"/><path d="M-58,365L48,415L91,238Z" fill="#c2cce4" stroke="#c2cce4" stroke-width="1.51"/><path d="M-17,226L-58,365L91,238Z" fill="#cad0e6" stroke="#cad0e6" stroke-width="1.51"/><path d="M48,415L-89,553L123,509Z" fill="#b1c5df" stroke="#b1c5df" stroke-width="1.51"/><path d="M-76,933L-44,1115L123,969Z" fill="#89a2ca" stroke="#89a2ca" stroke-width="1.51"/><path d="M-67,1268L76,1309L77,1163Z" fill="#7c8fb0" stroke="#7c8fb0" stroke-width="1.51"/><path d="M45,700L-65,849L112,799Z" fill="#92b2d5" stroke="#92b2d5" stroke-width="1.51"/><path d="M-28,-49L-79,133L74,-23Z" fill="#e1deed" stroke="#e1deed" stroke-width="1.51"/><path d="M-89,553L-86,690L45,700Z" fill="#a4bfdc" stroke="#a4bfdc" stroke-width="1.51"/><path d="M-44,1115L-67,1268L77,1163Z" fill="#8398ba" stroke="#8398ba" stroke-width="1.51"/><path d="M-86,690L-65,849L45,700Z" fill="#99b8d8" stroke="#99b8d8" stroke-width="1.51"/><path d="M-58,365L-89,553L48,415Z" fill="#bacae2" stroke="#bacae2" stroke-width="1.51"/><path d="M-165,441L-89,553L-58,365Z" fill="#bdcde4" stroke="#bdcde4" stroke-width="1.51"/><path d="M-109,-239L-167,-169L-28,-49Z" fill="#f0ebf4" stroke="#f0ebf4" stroke-width="1.51"/><path d="M-156,111L-79,133L-28,-49Z" fill="#e3e0ee" stroke="#e3e0ee" stroke-width="1.51"/><path d="M-239,248L-58,365L-17,226Z" fill="#d0d5e9" stroke="#d0d5e9" stroke-width="1.51"/><path d="M-79,133L-239,248L-17,226Z" fill="#d8daeb" stroke="#d8daeb" stroke-width="1.51"/><path d="M-86,690L-162,697L-65,849Z" fill="#9dbcda" stroke="#9dbcda" stroke-width="1.51"/><path d="M-76,933L-263,1045L-44,1115Z" fill="#90a7cb" stroke="#90a7cb" stroke-width="1.51"/><path d="M-232,1163L-67,1268L-44,1115Z" fill="#899cbd" stroke="#899cbd" stroke-width="1.51"/><path d="M-240,-90L-156,111L-28,-49Z" fill="#eae6f1" stroke="#eae6f1" stroke-width="1.51"/><path d="M-167,-169L-240,-90L-28,-49Z" fill="#f0eaf4" stroke="#f0eaf4" stroke-width="1.51"/><path d="M-156,111L-239,248L-79,133Z" fill="#dedded" stroke="#dedded" stroke-width="1.51"/><path d="M-263,1045L-232,1163L-44,1115Z" fill="#8fa4c5" stroke="#8fa4c5" stroke-width="1.51"/><path d="M-89,553L-172,559L-86,690Z" fill="#adc5e0" stroke="#adc5e0" stroke-width="1.51"/><path d="M-172,559L-162,697L-86,690Z" fill="#aac3de" stroke="#aac3de" stroke-width="1.51"/><path d="M-162,697L-221,847L-65,849Z" fill="#9cb9d9" stroke="#9cb9d9" stroke-width="1.51"/><path d="M-239,248L-165,441L-58,365Z" fill="#cbd4e8" stroke="#cbd4e8" stroke-width="1.51"/><path d="M-232,1163L-235,1313L-67,1268Z" fill="#8899b4" stroke="#8899b4" stroke-width="1.51"/><path d="M-221,847L-76,933L-65,849Z" fill="#97b1d5" stroke="#97b1d5" stroke-width="1.51"/><path d="M-165,441L-172,559L-89,553Z" fill="#b8cbe3" stroke="#b8cbe3" stroke-width="1.51"/><path d="M-221,847L-263,1045L-76,933Z" fill="#96aed4" stroke="#96aed4" stroke-width="1.51"/><path d="M-240,-90L-239,248L-156,111Z" fill="#e6e3f0" stroke="#e6e3f0" stroke-width="1.51"/><path d="M-172,559L-221,847L-162,697Z" fill="#a6c1dd" stroke="#a6c1dd" stroke-width="1.51"/><path d="M-239,248L-172,559L-165,441Z" fill="#c5d2e7" stroke="#c5d2e7" stroke-width="1.51"/><path d="M-239,248L-221,847L-172,559Z" fill="#b7cce3" stroke="#b7cce3" stroke-width="1.51"/><path d="M-239,248L-263,1045L-221,847Z" fill="#a7c3de" stroke="#a7c3de" stroke-width="1.51"/><path d="M-263,1045L-235,1313L-232,1163Z" fill="#90a2c0" stroke="#90a2c0" stroke-width="1.51"/></svg>